<svg width="256" height="256" viewBox="0 0 256 256" xmlns="http://www.w3.org/2000/svg" preserveAspectRatio="xMidYMid"><path d="M254.953 144.253c8.959-70.131-40.569-134.248-110.572-143.206C74.378-7.912 10.005 41.616 1.047 111.619c-8.959 70.003 40.569 134.248 110.572 143.334 70.131 8.959 134.248-40.569 143.334-110.7" fill="#FF6C37"></path><path d="m174.199 82.184-54.006 54.007-15.23-15.23c53.111-53.11 58.358-48.503 69.236-38.777" fill="#FFF"></path><path d="M120.193 137.47c-.384 0-.64-.128-.896-.384l-15.356-15.229a1.237 1.237 0 0 1 0-1.791c54.006-54.007 59.637-48.888 71.027-38.65.256.256.384.512.384.896s-.128.64-.384.896l-54.007 53.878c-.128.256-.512.384-.768.384m-13.437-16.509 13.437 13.438 52.088-52.087c-9.47-8.446-15.87-11.006-65.524 38.65" fill="#FF6C37"></path><path d="m135.678 151.676-14.717-14.718 54.006-54.006c14.462 14.59-7.166 38.265-39.289 68.724" fill="#FFF"></path><path d="M135.678 152.956c-.384 0-.64-.128-.895-.384l-14.718-14.718c-.256-.256-.256-.512-.256-.896 0-.383.128-.64.384-.895l54.006-54.007a1.237 1.237 0 0 1 1.792 0 15.58 15.58 0 0 1 4.991 11.902c-.256 14.206-16.38 32.25-44.28 58.614-.384.256-.768.384-1.024.384m-12.925-15.998c8.19 8.319 11.646 11.646 12.925 12.926 21.5-20.476 42.36-41.464 42.489-55.926.128-3.327-1.152-6.655-3.328-9.214z" fill="#FF6C37"></path><path d="m105.22 121.345 10.878 10.878q.384.384 0 .768c-.128.128-.128.128-.256.128l-22.524 4.863c-1.152.128-2.176-.64-2.432-1.791-.128-.64.128-1.28.512-1.664l13.054-13.054c.256-.256.64-.384.768-.128" fill="#FFF"></path><path d="M92.934 139.262c-1.92 0-3.327-1.536-3.327-3.455 0-.896.384-1.792 1.024-2.432l13.053-13.054c.768-.64 1.792-.64 2.56 0l10.877 10.878c.768.64.768 1.792 0 2.56-.256.256-.512.384-.896.512l-22.524 4.863c-.256 0-.512.128-.768.128m11.902-16.509-12.541 12.542c-.256.256-.384.64-.128 1.024.128.384.512.511.896.384l21.116-4.608z" fill="#FF6C37"></path><path d="M202.738 52.238c-8.19-7.935-21.372-7.679-29.306.64-7.935 8.318-7.679 21.372.64 29.306A20.68 20.68 0 0 0 199.155 85l-14.59-14.59z" fill="#FFF"></path><path d="M188.405 89.223c-12.158 0-22.012-9.854-22.012-22.012s9.854-22.012 22.012-22.012c5.63 0 11.134 2.176 15.23 6.143.255.256.383.512.383.896s-.128.64-.384.896l-17.277 17.275 13.566 13.566c.512.512.512 1.28 0 1.792l-.256.256c-3.328 2.047-7.295 3.2-11.262 3.2m0-41.336c-10.75 0-19.453 8.702-19.325 19.452 0 10.75 8.703 19.453 19.453 19.325 2.943 0 5.887-.64 8.574-2.048l-13.437-13.31c-.256-.256-.384-.512-.384-.896 0-.383.128-.64.384-.895l17.149-17.15c-3.456-2.943-7.807-4.478-12.414-4.478" fill="#FF6C37"></path><path d="m203.122 52.622-.256-.256-18.3 18.044 14.461 14.462c1.408-.896 2.815-1.92 3.967-3.072a20.51 20.51 0 0 0 .128-29.178" fill="#FFF"></path><path d="M199.155 86.279c-.384 0-.64-.127-.896-.383l-14.59-14.59c-.255-.256-.383-.512-.383-.896 0-.383.128-.64.384-.895l18.171-18.173a1.237 1.237 0 0 1 1.792 0l.384.256c8.575 8.574 8.575 22.396.128 31.098-1.28 1.28-2.687 2.432-4.223 3.328-.384.128-.64.256-.768.256m-12.798-15.869 12.926 12.926c1.024-.64 2.048-1.536 2.815-2.303 7.295-7.295 7.679-19.197.64-26.876z" fill="#FF6C37"></path><path d="M176.375 84.488a7.88 7.88 0 0 0-11.134 0l-48.247 48.247 8.062 8.063 51.063-44.792c3.328-2.816 3.583-7.807.768-11.134-.256-.128-.384-.256-.512-.384" fill="#FFF"></path><path d="M124.928 142.078c-.384 0-.64-.128-.896-.384l-8.062-8.063a1.237 1.237 0 0 1 0-1.792l48.247-48.247a9.115 9.115 0 0 1 12.926 0 9.115 9.115 0 0 1 0 12.926l-.384.384-51.063 44.792q-.192.384-.768.384m-6.143-9.343 6.271 6.271 50.167-44.024c2.816-2.304 3.072-6.527.768-9.342-2.303-2.816-6.527-3.072-9.342-.768-.128.128-.256.256-.512.384z" fill="#FF6C37"></path><path d="M80.008 187.637c-.511.256-.767.768-.64 1.28l2.176 9.214c.512 1.28-.256 2.816-1.664 3.2-1.023.384-2.175 0-2.815-.768l-14.078-13.95 45.944-45.942 15.87.256 10.75 10.75c-2.56 2.175-18.045 17.149-55.543 35.961" fill="#FFF"></path><path d="M78.985 202.611c-1.024 0-2.048-.384-2.688-1.152l-13.95-13.95c-.255-.256-.383-.512-.383-.895 0-.384.128-.64.384-.896l45.943-45.944c.256-.256.64-.384.896-.384l15.87.256c.383 0 .64.128.895.384l10.75 10.75c.256.256.384.64.384 1.024s-.128.64-.512.896l-.896.767c-13.565 11.902-31.994 23.804-54.902 35.194l2.176 9.087c.384 1.663-.384 3.455-1.92 4.35-.768.385-1.408.513-2.047.513m-14.078-15.997 13.182 13.053c.384.64 1.152.896 1.791.512.64-.384.896-1.152.512-1.792l-2.175-9.214c-.256-1.152.256-2.176 1.28-2.687 22.651-11.39 40.952-23.164 54.39-34.81l-9.47-9.47-14.718-.256z" fill="#FF6C37"></path><path d="m52.109 197.619 11.006-11.005 16.382 16.38-26.108-1.791c-1.152-.128-1.92-1.152-1.791-2.304 0-.512.128-1.024.511-1.28" fill="#FFF"></path><path d="m79.497 204.146-26.236-1.791c-1.92-.128-3.2-1.792-3.071-3.712.128-.768.384-1.535 1.024-2.047L62.22 185.59a1.237 1.237 0 0 1 1.791 0l16.381 16.38c.384.385.512.897.256 1.408q-.384.768-1.151.768m-16.382-15.74-10.11 10.11c-.384.255-.384.895 0 1.151.128.128.256.256.512.256l22.652 1.536zm41.337-41.849c-.768 0-1.28-.64-1.28-1.28 0-.384.128-.64.384-.896l12.415-12.414a1.237 1.237 0 0 1 1.792 0l8.062 8.063c.384.384.512.768.384 1.28-.128.384-.512.768-1.024.896l-20.476 4.35zm12.414-11.902-8.447 8.446 13.822-2.942z" fill="#FF6C37"></path><path d="m124.801 140.926-14.078 3.071c-1.024.256-2.048-.384-2.304-1.408-.128-.64 0-1.28.512-1.791l7.807-7.807z" fill="#FFF"></path><path d="M110.467 145.277a3.17 3.17 0 0 1-3.2-3.2c0-.895.384-1.663.896-2.303l7.807-7.807a1.237 1.237 0 0 1 1.792 0l8.062 8.063c.384.384.512.768.384 1.28-.128.384-.512.768-1.024.896l-14.077 3.071zm6.399-10.622-6.911 6.91c-.256.257-.256.513-.128.768q.192.384.768.384l11.774-2.56zm86.385-69.748c-.257-.767-1.153-1.151-1.92-.895-.768.256-1.152 1.151-.896 1.92 0 .127.128.255.128.383.768 1.536.512 3.456-.512 4.863-.512.64-.384 1.536.128 2.048.64.512 1.535.384 2.047-.256 1.92-2.432 2.304-5.503 1.024-8.063" fill="#FF6C37"></path></svg>